<svg width="200" height="80" viewBox="0 0 200 80" xmlns="http://www.w3.org/2000/svg">
  <g fill="#d4c5b9">

    <!-- top row -->
    <rect x="6" y="6" width="4" height="4"/>
    <rect x="24" y="10" width="4" height="4"/>
    <rect x="52" y="4" width="4" height="4"/>
    <rect x="78" y="12" width="4" height="4"/>
    <rect x="110" y="8" width="4" height="4"/>
    <rect x="142" y="5" width="4" height="4"/>
    <rect x="178" y="11" width="4" height="4"/>

    <!-- upper middle -->
    <rect x="14" y="26" width="6" height="6"/>
    <rect x="62" y="22" width="6" height="6"/>
    <rect x="104" y="30" width="6" height="6"/>
    <rect x="164" y="24" width="6" height="6"/>

    <!-- lower middle -->
    <rect x="38" y="42" width="4" height="4"/>
    <rect x="90" y="50" width="4" height="4"/>
    <rect x="134" y="44" width="4" height="4"/>

    <!-- bottom sparse -->
    <rect x="20" y="64" width="4" height="4"/>
    <rect x="72" y="58" width="4" height="4"/>
    <rect x="170" y="62" width="4" height="4"/>

  </g>
</svg>